<mxfile host="Electron" modified="2023-11-07T17:03:51.401Z" agent="Mozilla/5.0 (Windows NT 10.0; Win64; x64) AppleWebKit/537.36 (KHTML, like Gecko) draw.io/22.0.3 Chrome/114.0.5735.289 Electron/25.8.4 Safari/537.36" etag="13Cb0lmnYND0mx5ueRAp" version="22.0.3" type="device">
  <diagram name="Page-1" id="ceNlQ1n_umLlqLWM4svG">
    <mxGraphModel dx="979" dy="567" grid="1" gridSize="10" guides="1" tooltips="1" connect="1" arrows="1" fold="1" page="1" pageScale="1" pageWidth="827" pageHeight="1169" math="1" shadow="1">
      <root>
        <mxCell id="0" />
        <mxCell id="1" parent="0" />
        <mxCell id="Kwwapd3JN2-CHQ2UnSag-1" value="&lt;b&gt;ScanDay&lt;/b&gt;" style="ellipse;whiteSpace=wrap;html=1;aspect=fixed;labelBackgroundColor=none;fillColor=#56517E;strokeColor=#EEEEEE;fontColor=#FFFFFF;" parent="1" vertex="1">
          <mxGeometry x="530" y="380" width="100" height="100" as="geometry" />
        </mxCell>
        <mxCell id="Kwwapd3JN2-CHQ2UnSag-2" value="&lt;b&gt;ScanNight&lt;/b&gt;" style="ellipse;whiteSpace=wrap;html=1;aspect=fixed;labelBackgroundColor=none;fillColor=#56517E;strokeColor=#EEEEEE;fontColor=#FFFFFF;" parent="1" vertex="1">
          <mxGeometry x="200" y="380" width="100" height="100" as="geometry" />
        </mxCell>
        <mxCell id="Kwwapd3JN2-CHQ2UnSag-3" value="&lt;b&gt;SleepNight&lt;/b&gt;" style="ellipse;whiteSpace=wrap;html=1;aspect=fixed;labelBackgroundColor=none;fillColor=#56517E;strokeColor=#EEEEEE;fontColor=#FFFFFF;" parent="1" vertex="1">
          <mxGeometry x="110" y="180" width="100" height="100" as="geometry" />
        </mxCell>
        <mxCell id="Kwwapd3JN2-CHQ2UnSag-4" value="&lt;b&gt;SleepDaySun&lt;/b&gt;" style="ellipse;whiteSpace=wrap;html=1;aspect=fixed;labelBackgroundColor=none;fillColor=#56517E;strokeColor=#EEEEEE;fontColor=#FFFFFF;" parent="1" vertex="1">
          <mxGeometry x="364" y="180" width="100" height="100" as="geometry" />
        </mxCell>
        <mxCell id="Kwwapd3JN2-CHQ2UnSag-5" value="&lt;b&gt;SleepDayCloud&lt;/b&gt;" style="ellipse;whiteSpace=wrap;html=1;aspect=fixed;labelBackgroundColor=none;fillColor=#56517E;strokeColor=#EEEEEE;fontColor=#FFFFFF;" parent="1" vertex="1">
          <mxGeometry x="630" y="180" width="100" height="100" as="geometry" />
        </mxCell>
        <mxCell id="Kwwapd3JN2-CHQ2UnSag-6" value="" style="endArrow=classic;startArrow=classic;exitX=1;exitY=0.5;exitDx=0;exitDy=0;entryX=0;entryY=0.5;entryDx=0;entryDy=0;curved=1;strokeColor=#182E3E;verticalAlign=middle;labelPosition=center;verticalLabelPosition=middle;align=center;html=1;labelBackgroundColor=none;fontColor=default;" parent="1" source="Kwwapd3JN2-CHQ2UnSag-2" target="Kwwapd3JN2-CHQ2UnSag-1" edge="1">
          <mxGeometry x="0.088" y="-2" width="50" height="50" relative="1" as="geometry">
            <mxPoint x="410" y="450" as="sourcePoint" />
            <mxPoint x="460" y="400" as="targetPoint" />
            <Array as="points">
              <mxPoint x="420" y="450" />
            </Array>
            <mxPoint as="offset" />
          </mxGeometry>
        </mxCell>
        <mxCell id="Kwwapd3JN2-CHQ2UnSag-10" value="&lt;font color=&quot;#000000&quot;&gt;λ = 1/12 h&lt;span style=&quot;border-color: var(--border-color);&quot;&gt;&lt;sup&gt;-1&lt;/sup&gt;&lt;/span&gt;&lt;/font&gt;" style="text;html=1;strokeColor=none;fillColor=none;align=center;verticalAlign=middle;whiteSpace=wrap;rounded=0;fontColor=#FFFFFF;labelBackgroundColor=none;" parent="1" vertex="1">
          <mxGeometry x="379" y="440" width="70" height="30" as="geometry" />
        </mxCell>
        <mxCell id="Kwwapd3JN2-CHQ2UnSag-11" value="" style="endArrow=classic;startArrow=blockThin;html=1;strokeColor=#182E3E;exitX=1;exitY=0;exitDx=0;exitDy=0;entryX=0;entryY=1;entryDx=0;entryDy=0;startFill=1;curved=1;labelBackgroundColor=none;fontColor=default;" parent="1" source="Kwwapd3JN2-CHQ2UnSag-2" target="Kwwapd3JN2-CHQ2UnSag-5" edge="1">
          <mxGeometry width="50" height="50" relative="1" as="geometry">
            <mxPoint x="329" y="390" as="sourcePoint" />
            <mxPoint x="379" y="340" as="targetPoint" />
            <Array as="points">
              <mxPoint x="470" y="340" />
            </Array>
          </mxGeometry>
        </mxCell>
        <mxCell id="Kwwapd3JN2-CHQ2UnSag-12" value="" style="endArrow=classic;startArrow=classic;html=1;strokeColor=#182E3E;exitX=0.5;exitY=0;exitDx=0;exitDy=0;entryX=0;entryY=1;entryDx=0;entryDy=0;curved=1;labelBackgroundColor=none;fontColor=default;" parent="1" source="Kwwapd3JN2-CHQ2UnSag-2" target="Kwwapd3JN2-CHQ2UnSag-4" edge="1">
          <mxGeometry width="50" height="50" relative="1" as="geometry">
            <mxPoint x="270" y="350" as="sourcePoint" />
            <mxPoint x="320" y="300" as="targetPoint" />
            <Array as="points">
              <mxPoint x="260" y="340" />
            </Array>
          </mxGeometry>
        </mxCell>
        <mxCell id="Kwwapd3JN2-CHQ2UnSag-15" value="&lt;font color=&quot;#000000&quot;&gt;λ = 1/12 h&lt;span style=&quot;border-color: var(--border-color);&quot;&gt;&lt;sup&gt;-1&lt;/sup&gt;&lt;/span&gt;&lt;/font&gt;" style="text;html=1;strokeColor=none;fillColor=none;align=center;verticalAlign=middle;whiteSpace=wrap;rounded=0;fontColor=#FFFFFF;rotation=340;labelBackgroundColor=none;" parent="1" vertex="1">
          <mxGeometry x="460" y="320" width="70" height="30" as="geometry" />
        </mxCell>
        <mxCell id="Kwwapd3JN2-CHQ2UnSag-17" value="&lt;font color=&quot;#000000&quot;&gt;λ = 1/12 h&lt;span style=&quot;border-color: var(--border-color);&quot;&gt;&lt;sup&gt;-1&lt;/sup&gt;&lt;/span&gt;&lt;/font&gt;" style="text;html=1;strokeColor=none;fillColor=none;align=center;verticalAlign=middle;whiteSpace=wrap;rounded=0;fontColor=#FFFFFF;rotation=324;labelBackgroundColor=none;" parent="1" vertex="1">
          <mxGeometry x="294" y="300" width="70" height="30" as="geometry" />
        </mxCell>
        <mxCell id="Kwwapd3JN2-CHQ2UnSag-18" value="" style="endArrow=classic;startArrow=classic;html=1;strokeColor=#182E3E;exitX=0.5;exitY=1;exitDx=0;exitDy=0;entryX=0;entryY=0;entryDx=0;entryDy=0;curved=1;labelBackgroundColor=none;fontColor=default;" parent="1" source="Kwwapd3JN2-CHQ2UnSag-3" target="Kwwapd3JN2-CHQ2UnSag-1" edge="1">
          <mxGeometry width="50" height="50" relative="1" as="geometry">
            <mxPoint x="240" y="300" as="sourcePoint" />
            <mxPoint x="290" y="250" as="targetPoint" />
            <Array as="points">
              <mxPoint x="200" y="330" />
              <mxPoint x="340" y="390" />
            </Array>
          </mxGeometry>
        </mxCell>
        <mxCell id="Kwwapd3JN2-CHQ2UnSag-19" value="&lt;font color=&quot;#000000&quot;&gt;λ = 1/12 h&lt;span style=&quot;border-color: var(--border-color);&quot;&gt;&lt;sup&gt;-1&lt;/sup&gt;&lt;/span&gt;&lt;/font&gt;" style="text;html=1;strokeColor=none;fillColor=none;align=center;verticalAlign=middle;whiteSpace=wrap;rounded=0;fontColor=#FFFFFF;rotation=5;labelBackgroundColor=none;" parent="1" vertex="1">
          <mxGeometry x="394" y="385" width="70" height="30" as="geometry" />
        </mxCell>
        <mxCell id="Kwwapd3JN2-CHQ2UnSag-20" value="" style="endArrow=classic;html=1;strokeColor=#182E3E;exitX=0;exitY=0;exitDx=0;exitDy=0;entryX=0;entryY=1;entryDx=0;entryDy=0;curved=1;labelBackgroundColor=none;fontColor=default;" parent="1" source="Kwwapd3JN2-CHQ2UnSag-2" target="Kwwapd3JN2-CHQ2UnSag-3" edge="1">
          <mxGeometry width="50" height="50" relative="1" as="geometry">
            <mxPoint x="80" y="430" as="sourcePoint" />
            <mxPoint x="130" y="380" as="targetPoint" />
            <Array as="points">
              <mxPoint x="120" y="350" />
              <mxPoint x="80" y="300" />
            </Array>
          </mxGeometry>
        </mxCell>
        <mxCell id="Kwwapd3JN2-CHQ2UnSag-21" value="&lt;font color=&quot;#000000&quot;&gt;λ = 1/2 min&lt;span style=&quot;border-color: var(--border-color);&quot;&gt;&lt;sup&gt;-1&lt;/sup&gt;&lt;/span&gt;&lt;/font&gt;" style="text;html=1;strokeColor=none;fillColor=none;align=center;verticalAlign=middle;whiteSpace=wrap;rounded=0;fontColor=#FFFFFF;rotation=29;labelBackgroundColor=none;" parent="1" vertex="1">
          <mxGeometry x="140" y="340" width="70" height="30" as="geometry" />
        </mxCell>
        <mxCell id="Kwwapd3JN2-CHQ2UnSag-22" value="" style="endArrow=classic;html=1;strokeColor=#182E3E;exitX=0;exitY=0.5;exitDx=0;exitDy=0;entryX=0;entryY=0.5;entryDx=0;entryDy=0;curved=1;labelBackgroundColor=none;fontColor=default;" parent="1" source="Kwwapd3JN2-CHQ2UnSag-3" target="Kwwapd3JN2-CHQ2UnSag-2" edge="1">
          <mxGeometry width="50" height="50" relative="1" as="geometry">
            <mxPoint x="80" y="460" as="sourcePoint" />
            <mxPoint x="130" y="410" as="targetPoint" />
            <Array as="points">
              <mxPoint x="40" y="230" />
              <mxPoint x="50" y="430" />
            </Array>
          </mxGeometry>
        </mxCell>
        <mxCell id="Kwwapd3JN2-CHQ2UnSag-24" value="&lt;font color=&quot;#000000&quot;&gt;λ = 1/18 min&lt;span style=&quot;border-color: var(--border-color);&quot;&gt;&lt;sup&gt;-1&lt;/sup&gt;&lt;/span&gt;&lt;/font&gt;" style="text;html=1;strokeColor=none;fillColor=none;align=center;verticalAlign=middle;whiteSpace=wrap;rounded=0;fontColor=#FFFFFF;rotation=18;labelBackgroundColor=none;" parent="1" vertex="1">
          <mxGeometry x="80" y="420" width="80" height="30" as="geometry" />
        </mxCell>
        <mxCell id="Kwwapd3JN2-CHQ2UnSag-25" value="" style="endArrow=classic;html=1;strokeColor=#182E3E;exitX=1;exitY=0;exitDx=0;exitDy=0;entryX=1;entryY=1;entryDx=0;entryDy=0;curved=1;labelBackgroundColor=none;fontColor=default;" parent="1" source="Kwwapd3JN2-CHQ2UnSag-1" target="Kwwapd3JN2-CHQ2UnSag-5" edge="1">
          <mxGeometry width="50" height="50" relative="1" as="geometry">
            <mxPoint x="700" y="390" as="sourcePoint" />
            <mxPoint x="750" y="340" as="targetPoint" />
            <Array as="points">
              <mxPoint x="750" y="360" />
            </Array>
          </mxGeometry>
        </mxCell>
        <mxCell id="Kwwapd3JN2-CHQ2UnSag-26" value="&lt;font color=&quot;#000000&quot;&gt;λ = 1/2 min&lt;span style=&quot;border-color: var(--border-color);&quot;&gt;&lt;sup&gt;-1&lt;/sup&gt;&lt;/span&gt;&lt;/font&gt;" style="text;html=1;strokeColor=none;fillColor=none;align=center;verticalAlign=middle;whiteSpace=wrap;rounded=0;fontColor=#FFFFFF;rotation=340;labelBackgroundColor=none;" parent="1" vertex="1">
          <mxGeometry x="649.9952391918507" y="369.9957185903901" width="70" height="30" as="geometry" />
        </mxCell>
        <mxCell id="Kwwapd3JN2-CHQ2UnSag-27" value="" style="endArrow=classic;html=1;strokeColor=default;exitX=0.5;exitY=0;exitDx=0;exitDy=0;entryX=1;entryY=1;entryDx=0;entryDy=0;noJump=0;labelBackgroundColor=none;fontColor=default;shadow=0;orthogonal=0;enumerate=0;jumpStyle=none;curved=1;" parent="1" source="Kwwapd3JN2-CHQ2UnSag-1" target="Kwwapd3JN2-CHQ2UnSag-4" edge="1">
          <mxGeometry width="50" height="50" relative="1" as="geometry">
            <mxPoint x="540" y="280" as="sourcePoint" />
            <mxPoint x="590" y="230" as="targetPoint" />
            <Array as="points">
              <mxPoint x="530" y="310" />
            </Array>
          </mxGeometry>
        </mxCell>
        <mxCell id="y8_aSxsieJNGo6laByyV-2" value="&lt;font color=&quot;#000000&quot;&gt;λ = 1/2 min&lt;span style=&quot;border-color: var(--border-color);&quot;&gt;&lt;sup&gt;-1&lt;/sup&gt;&lt;/span&gt;&lt;/font&gt;" style="text;html=1;strokeColor=none;fillColor=none;align=center;verticalAlign=middle;whiteSpace=wrap;rounded=0;fontColor=#FFFFFF;rotation=50;labelBackgroundColor=none;direction=east;" parent="1" vertex="1">
          <mxGeometry x="539.9952391918507" y="329.9957185903901" width="70" height="30" as="geometry" />
        </mxCell>
        <mxCell id="y8_aSxsieJNGo6laByyV-3" value="" style="endArrow=classic;html=1;strokeColor=#182E3E;exitX=1;exitY=0.5;exitDx=0;exitDy=0;entryX=0;entryY=0.5;entryDx=0;entryDy=0;curved=1;" parent="1" source="Kwwapd3JN2-CHQ2UnSag-4" target="Kwwapd3JN2-CHQ2UnSag-5" edge="1">
          <mxGeometry width="50" height="50" relative="1" as="geometry">
            <mxPoint x="530" y="190" as="sourcePoint" />
            <mxPoint x="580" y="140" as="targetPoint" />
            <Array as="points">
              <mxPoint x="550" y="250" />
            </Array>
          </mxGeometry>
        </mxCell>
        <mxCell id="y8_aSxsieJNGo6laByyV-4" value="&lt;font color=&quot;#000000&quot;&gt;λ = 1/6 h&lt;span style=&quot;border-color: var(--border-color);&quot;&gt;&lt;sup&gt;-1&lt;/sup&gt;&lt;/span&gt;&lt;/font&gt;" style="text;html=1;strokeColor=none;fillColor=none;align=center;verticalAlign=middle;whiteSpace=wrap;rounded=0;fontColor=#FFFFFF;labelBackgroundColor=none;" parent="1" vertex="1">
          <mxGeometry x="510" y="240" width="70" height="30" as="geometry" />
        </mxCell>
        <mxCell id="y8_aSxsieJNGo6laByyV-5" value="" style="endArrow=classic;html=1;strokeColor=#182E3E;exitX=0;exitY=0;exitDx=0;exitDy=0;entryX=1;entryY=0;entryDx=0;entryDy=0;curved=1;" parent="1" source="Kwwapd3JN2-CHQ2UnSag-5" target="Kwwapd3JN2-CHQ2UnSag-4" edge="1">
          <mxGeometry width="50" height="50" relative="1" as="geometry">
            <mxPoint x="560" y="110" as="sourcePoint" />
            <mxPoint x="510" y="160" as="targetPoint" />
            <Array as="points">
              <mxPoint x="550" y="170" />
            </Array>
          </mxGeometry>
        </mxCell>
        <mxCell id="y8_aSxsieJNGo6laByyV-6" value="&lt;font color=&quot;#000000&quot;&gt;λ = 1/3 h&lt;span style=&quot;border-color: var(--border-color);&quot;&gt;&lt;sup&gt;-1&lt;/sup&gt;&lt;/span&gt;&lt;/font&gt;" style="text;html=1;strokeColor=none;fillColor=none;align=center;verticalAlign=middle;whiteSpace=wrap;rounded=0;fontColor=#FFFFFF;labelBackgroundColor=none;" parent="1" vertex="1">
          <mxGeometry x="520" y="150" width="70" height="30" as="geometry" />
        </mxCell>
        <mxCell id="y8_aSxsieJNGo6laByyV-8" value="" style="endArrow=classic;html=1;strokeColor=#182E3E;exitX=1;exitY=0.5;exitDx=0;exitDy=0;entryX=1;entryY=0.5;entryDx=0;entryDy=0;curved=1;" parent="1" source="Kwwapd3JN2-CHQ2UnSag-5" target="Kwwapd3JN2-CHQ2UnSag-1" edge="1">
          <mxGeometry width="50" height="50" relative="1" as="geometry">
            <mxPoint x="750" y="430" as="sourcePoint" />
            <mxPoint x="800" y="380" as="targetPoint" />
            <Array as="points">
              <mxPoint x="810" y="220" />
              <mxPoint x="790" y="450" />
            </Array>
          </mxGeometry>
        </mxCell>
        <mxCell id="y8_aSxsieJNGo6laByyV-9" value="&lt;font color=&quot;#000000&quot;&gt;λ = 1/8 min&lt;span style=&quot;border-color: var(--border-color);&quot;&gt;&lt;sup&gt;-1&lt;/sup&gt;&lt;/span&gt;&lt;/font&gt;" style="text;html=1;strokeColor=none;fillColor=none;align=center;verticalAlign=middle;whiteSpace=wrap;rounded=0;fontColor=#FFFFFF;rotation=0;labelBackgroundColor=none;" parent="1" vertex="1">
          <mxGeometry x="739.9952391918507" y="414.9957185903901" width="70" height="30" as="geometry" />
        </mxCell>
        <mxCell id="y8_aSxsieJNGo6laByyV-11" value="" style="endArrow=classic;html=1;strokeColor=#182E3E;exitX=0.5;exitY=1;exitDx=0;exitDy=0;entryX=0;entryY=0;entryDx=0;entryDy=0;curved=1;" parent="1" source="Kwwapd3JN2-CHQ2UnSag-4" target="Kwwapd3JN2-CHQ2UnSag-1" edge="1">
          <mxGeometry width="50" height="50" relative="1" as="geometry">
            <mxPoint x="390" y="340" as="sourcePoint" />
            <mxPoint x="440" y="290" as="targetPoint" />
            <Array as="points">
              <mxPoint x="440" y="370" />
            </Array>
          </mxGeometry>
        </mxCell>
        <mxCell id="y8_aSxsieJNGo6laByyV-15" value="&lt;font color=&quot;#000000&quot;&gt;λ = 1/3 min&lt;span style=&quot;border-color: var(--border-color);&quot;&gt;&lt;sup&gt;-1&lt;/sup&gt;&lt;/span&gt;&lt;/font&gt;" style="text;html=1;strokeColor=none;fillColor=none;align=center;verticalAlign=middle;whiteSpace=wrap;rounded=0;fontColor=#FFFFFF;rotation=64;labelBackgroundColor=none;direction=west;" parent="1" vertex="1">
          <mxGeometry x="378.9952391918507" y="299.9957185903901" width="70" height="30" as="geometry" />
        </mxCell>
        <mxCell id="y8_aSxsieJNGo6laByyV-16" value="" style="endArrow=classic;startArrow=classic;html=1;strokeColor=#182E3E;exitX=1;exitY=0.5;exitDx=0;exitDy=0;entryX=0;entryY=0.5;entryDx=0;entryDy=0;curved=1;" parent="1" source="Kwwapd3JN2-CHQ2UnSag-3" target="Kwwapd3JN2-CHQ2UnSag-4" edge="1">
          <mxGeometry width="50" height="50" relative="1" as="geometry">
            <mxPoint x="250" y="210" as="sourcePoint" />
            <mxPoint x="300" y="160" as="targetPoint" />
            <Array as="points">
              <mxPoint x="290" y="250" />
            </Array>
          </mxGeometry>
        </mxCell>
        <mxCell id="y8_aSxsieJNGo6laByyV-17" value="&lt;font color=&quot;#000000&quot;&gt;λ = 1/12 h&lt;span style=&quot;border-color: var(--border-color);&quot;&gt;&lt;sup&gt;-1&lt;/sup&gt;&lt;/span&gt;&lt;/font&gt;" style="text;html=1;strokeColor=none;fillColor=none;align=center;verticalAlign=middle;whiteSpace=wrap;rounded=0;fontColor=#FFFFFF;rotation=0;labelBackgroundColor=none;" parent="1" vertex="1">
          <mxGeometry x="250" y="240" width="70" height="30" as="geometry" />
        </mxCell>
        <mxCell id="y8_aSxsieJNGo6laByyV-18" value="" style="endArrow=classic;startArrow=classic;html=1;strokeColor=#182E3E;exitX=0.5;exitY=0;exitDx=0;exitDy=0;entryX=0.5;entryY=0;entryDx=0;entryDy=0;curved=1;" parent="1" source="Kwwapd3JN2-CHQ2UnSag-3" target="Kwwapd3JN2-CHQ2UnSag-5" edge="1">
          <mxGeometry width="50" height="50" relative="1" as="geometry">
            <mxPoint x="400" y="140" as="sourcePoint" />
            <mxPoint x="450" y="90" as="targetPoint" />
            <Array as="points">
              <mxPoint x="420" y="70" />
            </Array>
          </mxGeometry>
        </mxCell>
        <mxCell id="y8_aSxsieJNGo6laByyV-19" value="&lt;font color=&quot;#000000&quot;&gt;λ = 1/12 h&lt;span style=&quot;border-color: var(--border-color);&quot;&gt;&lt;sup&gt;-1&lt;/sup&gt;&lt;/span&gt;&lt;/font&gt;" style="text;html=1;strokeColor=none;fillColor=none;align=center;verticalAlign=middle;whiteSpace=wrap;rounded=0;fontColor=#FFFFFF;rotation=0;labelBackgroundColor=none;" parent="1" vertex="1">
          <mxGeometry x="379" y="120" width="70" height="30" as="geometry" />
        </mxCell>
        <mxCell id="y8_aSxsieJNGo6laByyV-20" value="&lt;font size=&quot;1&quot; color=&quot;#000000&quot;&gt;&lt;b style=&quot;font-size: 24px;&quot;&gt;MARKOV&#39;S CHAIN for ASSIGNMENT 9&lt;/b&gt;&lt;/font&gt;" style="text;html=1;strokeColor=none;fillColor=none;align=center;verticalAlign=middle;whiteSpace=wrap;rounded=0;fontColor=#FFFFFF;" parent="1" vertex="1">
          <mxGeometry x="20" y="50" width="790" height="30" as="geometry" />
        </mxCell>
      </root>
    </mxGraphModel>
  </diagram>
</mxfile>
